<svg xmlns="http://www.w3.org/2000/svg" xml:space="preserve" data-name="Layer 1" viewBox="0 0 62.056754 66.618433">
  <path d="m79.679996 61.93253-27.15 15.67a2 2 0 0 1-2 0l-27.1-15.67a2 2 0 0 1-1-1.7v-6h-1.05a.74.74 0 0 1-.64-.37.75.75 0 0 1 0-.74l3-5.24a.73.73 0 0 1 .64-.37.75.75 0 0 1 .64.37l3 5.24a.75.75 0 0 1 0 .74.73.73 0 0 1-.64.37h-1.01v4.89l25.18 14.52 25.19-14.52v-7.56h-8.65l-15.56 9a2 2 0 0 1-2 0l-15.77-9.17a2 2 0 0 1 0-3.39l15.81-9.36a2 2 0 0 1 1-.28 2 2 0 0 1 1 .28l15.17 9h11a2 2 0 0 1 2 2v10.59a2 2 0 0 1-1.06 1.7zm-28.13-19.33-11.93 7.07 11.93 6.89 11.93-6.89z" style="fill:#a52b00;fill-opacity:1" transform="translate(-20.642376 -11.252052)"/>
  <path d="m82.589996 37.12253-3.21 5.56a.79.79 0 0 1-1.36 0l-3.21-5.56a.83.83 0 0 1 0-.78.79.79 0 0 1 .68-.39h1.25v-6l-25.19-14.48-25.18 14.54v8.57h9l15.17-9a2 2 0 0 1 1-.27 2 2 0 0 1 1 .27l15.82 9.37a1.93 1.93 0 0 1 1 1.69 2 2 0 0 1-1 1.69l-15.83 9.15a2 2 0 0 1-2 0l-15.53-8.97h-10.59a2 2 0 0 1-2-2v-11.63a2 2 0 0 1 1-1.7l27.16-15.67a1.92 1.92 0 0 1 1-.26 1.89 1.89 0 0 1 1 .26l27.11 15.67a2 2 0 0 1 1 1.7v7.09h1.25a.79.79 0 0 1 .68.39.78.78 0 0 1-.02.76zm-31 10.38 11.93-6.89-11.97-7.04-11.93 7.06z" style="fill:#f74c00;fill-opacity:1" transform="translate(-20.642376 -11.252052)"/>
</svg>
