<?xml version="1.0" encoding="UTF-8" standalone="no"?>
<svg
   xml:space="preserve"
   data-name="Layer 1"
   viewBox="0 0 24 9.5030673"
   version="1.1"
   id="svg3"
   width="24"
   height="9.503067"
   xmlns="http://www.w3.org/2000/svg"
   xmlns:svg="http://www.w3.org/2000/svg"><defs
   id="defs3" />
  
  
  <g
   id="g4"
   transform="scale(0.14264923)"><path
     fill="#a52b00"
     d="m 125.3716,57.835175 q 0.19476,0.535586 0.19476,0.876414 0.0243,0.316483 -0.17042,0.486896 -0.19475,0.170414 -0.65731,0.219104 -0.4382,0.04869 -1.19289,0.04869 -0.75469,0 -1.21724,-0.04869 -0.43821,-0.02434 -0.68166,-0.09738 -0.2191,-0.09738 -0.34083,-0.243449 -0.0974,-0.146069 -0.19476,-0.365172 l -2.70227,-7.66862 h -13.09752 l -2.58055,7.571241 q -0.073,0.219103 -0.19476,0.389517 -0.12172,0.146069 -0.36517,0.267793 -0.2191,0.09738 -0.65731,0.146069 -0.41386,0.04869 -1.09552,0.04869 -0.705996,0 -1.168548,-0.07303 -0.438206,-0.04869 -0.632965,-0.219103 -0.170414,-0.170414 -0.170414,-0.486897 0.02434,-0.340827 0.219104,-0.876414 L 109.23098,28.548352 q 0.0974,-0.267793 0.24345,-0.438207 0.17041,-0.170414 0.46255,-0.267793 0.31648,-0.09738 0.77903,-0.121724 0.4869,-0.04869 1.21725,-0.04869 0.77903,0 1.29027,0.04869 0.51124,0.02434 0.82773,0.121724 0.31648,0.09738 0.48689,0.292138 0.17042,0.170413 0.2678,0.438206 z M 111.81153,32.005317 h -0.0243 l -5.4289,15.702411 h 10.95517 z m 35.39738,4.74724 q 0,0.09738 -0.0243,0.219104 0,0.09738 -0.0243,0.219103 -0.0243,0.121724 -0.073,0.267793 -0.0243,0.146069 -0.073,0.316483 l -7.47386,20.814825 q -0.0974,0.267793 -0.2678,0.438207 -0.14607,0.170413 -0.46255,0.267793 -0.31648,0.09738 -0.80338,0.121724 -0.48689,0.04869 -1.21724,0.04869 -0.73034,0 -1.21724,-0.04869 -0.4869,-0.04869 -0.80338,-0.146069 -0.29214,-0.09738 -0.46255,-0.267793 -0.17041,-0.170414 -0.26779,-0.413862 L 126.58884,37.77504 q -0.0974,-0.292138 -0.17041,-0.511241 -0.0487,-0.219104 -0.073,-0.316483 v -0.194759 q 0,-0.194758 0.0974,-0.340827 0.0974,-0.146069 0.31648,-0.219104 0.24345,-0.09738 0.60862,-0.121724 0.38952,-0.02434 0.94945,-0.02434 0.706,0 1.11986,0.04869 0.43821,0.02434 0.65731,0.121724 0.24345,0.09738 0.34083,0.243449 0.12173,0.146068 0.21911,0.365172 l 6.18358,18.063859 0.0974,0.292138 0.073,-0.292138 6.11056,-18.063859 q 0.0487,-0.219104 0.17041,-0.365172 0.12172,-0.146069 0.34083,-0.243449 0.24345,-0.09738 0.63296,-0.121724 0.41386,-0.04869 1.07117,-0.04869 0.55994,0 0.92511,0.02434 0.36517,0.02435 0.55993,0.121724 0.2191,0.09738 0.29214,0.243449 0.0974,0.121724 0.0974,0.316482 z m 22.76241,10.054413 q 0,0.949448 -0.4869,1.36331 -0.46255,0.389517 -1.07117,0.389517 H 154.0498 q 0,1.825862 0.36518,3.286551 0.36517,1.46069 1.21724,2.507517 0.85207,1.046828 2.21538,1.606759 1.36331,0.559931 3.33524,0.559931 1.55807,0 2.77531,-0.243449 1.21724,-0.267793 2.09365,-0.584275 0.90076,-0.316483 1.46069,-0.559931 0.58428,-0.267793 0.87642,-0.267793 0.17041,0 0.29213,0.09738 0.14607,0.07303 0.21911,0.243448 0.073,0.170414 0.0974,0.486897 0.0487,0.292138 0.0487,0.730344 0,0.316483 -0.0243,0.559931 -0.0243,0.219104 -0.073,0.413862 -0.0243,0.170414 -0.12173,0.316483 -0.073,0.146069 -0.2191,0.292138 -0.12173,0.121724 -0.77904,0.438207 -0.65731,0.292138 -1.70413,0.584276 -1.04683,0.292138 -2.43449,0.511241 -1.36331,0.243448 -2.92137,0.243448 -2.70228,0 -4.74725,-0.754689 -2.02062,-0.75469 -3.40827,-2.239724 -1.38766,-1.485034 -2.09366,-3.724758 -0.706,-2.239724 -0.706,-5.209793 0,-2.823999 0.73035,-5.063723 0.73034,-2.264069 2.09365,-3.822138 1.38766,-1.582413 3.33525,-2.410137 1.94758,-0.852069 4.35772,-0.852069 2.58055,0 4.38207,0.827724 1.82586,0.827724 2.99441,2.239724 1.16855,1.387655 1.70414,3.286551 0.55993,1.874552 0.55993,4.016896 z m -4.04124,-1.192897 q 0.073,-3.164827 -1.412,-4.966344 -1.46069,-1.801517 -4.35773,-1.801517 -1.48503,0 -2.60489,0.559931 -1.11986,0.559931 -1.87455,1.485035 -0.75469,0.925103 -1.16855,2.166689 -0.41387,1.217241 -0.46256,2.556206 z m 22.95716,-7.376481 q 0,0.535586 -0.0243,0.900758 -0.0243,0.365173 -0.0974,0.584276 -0.073,0.194759 -0.19476,0.316483 -0.0974,0.09738 -0.29214,0.09738 -0.19475,0 -0.48689,-0.09738 -0.2678,-0.121724 -0.63297,-0.219104 -0.34083,-0.121724 -0.77903,-0.219103 -0.43821,-0.09738 -0.94945,-0.09738 -0.60862,0 -1.1929,0.243448 -0.58427,0.243448 -1.24158,0.803379 -0.63297,0.559931 -1.33897,1.485034 -0.706,0.925104 -1.55807,2.264069 v 14.412136 q 0,0.194758 -0.0974,0.340827 -0.0974,0.121725 -0.31648,0.219104 -0.2191,0.09738 -0.60862,0.146069 -0.38952,0.04869 -0.99814,0.04869 -0.58427,0 -0.97379,-0.04869 -0.38952,-0.04869 -0.63297,-0.146069 -0.2191,-0.09738 -0.31648,-0.219104 -0.073,-0.146069 -0.073,-0.340827 V 36.801247 q 0,-0.194759 0.073,-0.316483 0.073,-0.146069 0.29214,-0.243448 0.2191,-0.121724 0.55993,-0.146069 0.34083,-0.04869 0.90076,-0.04869 0.53559,0 0.87641,0.04869 0.36518,0.02434 0.55993,0.146069 0.19476,0.09738 0.2678,0.243448 0.0974,0.121724 0.0974,0.316483 v 3.189172 q 0.90075,-1.31462 1.67979,-2.142344 0.80338,-0.827725 1.50938,-1.290276 0.706,-0.486897 1.38765,-0.65731 0.706,-0.194759 1.412,-0.194759 0.31649,0 0.706,0.04869 0.41386,0.02434 0.85207,0.121724 0.43821,0.09738 0.77904,0.219103 0.36517,0.121724 0.51124,0.243448 0.14607,0.121725 0.19476,0.243449 0.0487,0.09738 0.073,0.267793 0.0487,0.170413 0.0487,0.511241 0.0243,0.316483 0.0243,0.876414 z"
     aria-label="Aver"
     font-family="Calibri"
     font-size="49.8582px"
     style="-inkscape-font-specification:'Calibri, Normal'"
     transform="translate(-20.642376,-11.252052)"
     id="path1" /><g
     id="g3"><path
       fill="#a52b00"
       d="m 59.03762,50.680478 -27.15,15.67 a 2,2 0 0 1 -2,0 l -27.1,-15.67 a 2,2 0 0 1 -1,-1.7 v -6 h -1.05 a 0.74,0.74 0 0 1 -0.64,-0.37 0.75,0.75 0 0 1 0,-0.74 l 3,-5.24 a 0.73,0.73 0 0 1 0.64,-0.37 0.75,0.75 0 0 1 0.64,0.37 l 3,5.24 a 0.75,0.75 0 0 1 0,0.74 0.73,0.73 0 0 1 -0.64,0.37 h -1.01 v 4.89 l 25.18,14.52 25.19,-14.52 v -7.56 h -8.65 l -15.56,9 a 2,2 0 0 1 -2,0 l -15.77,-9.17 a 2,2 0 0 1 0,-3.39 l 15.81,-9.36 a 2,2 0 0 1 1,-0.28 2,2 0 0 1 1,0.28 l 15.17,9 h 11 a 2,2 0 0 1 2,2 v 10.59 a 2,2 0 0 1 -1.06,1.7 z m -28.13,-19.33 -11.93,7.07 11.93,6.89 11.93,-6.89 z"
       id="path2" /><path
       fill="#f74c00"
       d="m 61.94762,25.870478 -3.21,5.56 a 0.79,0.79 0 0 1 -1.36,0 l -3.21,-5.56 a 0.83,0.83 0 0 1 0,-0.78 0.79,0.79 0 0 1 0.68,-0.39 h 1.25 v -6 l -25.19,-14.48 -25.18,14.54 v 8.57 h 9 l 15.17,-9 a 2,2 0 0 1 1,-0.27 2,2 0 0 1 1,0.27 l 15.82,9.37 a 1.93,1.93 0 0 1 1,1.69 2,2 0 0 1 -1,1.69 l -15.83,9.15 a 2,2 0 0 1 -2,0 l -15.53,-8.97 h -10.59 a 2,2 0 0 1 -2,-2 v -11.63 a 2,2 0 0 1 1,-1.7 l 27.16,-15.67 a 1.92,1.92 0 0 1 1,-0.26 1.89,1.89 0 0 1 1,0.26 l 27.11,15.67 a 2,2 0 0 1 1,1.7 v 7.09 h 1.25 a 0.79,0.79 0 0 1 0.68,0.39 0.78,0.78 0 0 1 -0.02,0.76 z m -31,10.38 11.93,-6.89 -11.97,-7.04 -11.93,7.06 z"
       id="path3" /></g></g>
</svg>
